<svg width="3072" height="3072" viewBox="0 0 3072 3072" fill="none" xmlns="http://www.w3.org/2000/svg">
<path d="M1598.78 4.13976C1600.64 4.41305 1602.5 4.68634 1604.41 4.96791C1627.6 8.43635 1649.94 11.9976 1671.46 22.4645C1673.07 23.229 1674.68 23.9934 1676.34 24.781C1721.53 46.3296 1762.66 70.2045 1798.18 107.98C1799.47 109.336 1800.76 110.692 1802.09 112.089C1819.4 130.355 1835.7 148.743 1849.99 169.925C1852.1 172.96 1854.36 175.872 1856.62 178.774C1868.39 194.139 1876.95 211.021 1885.53 228.618C1886.14 229.859 1886.74 231.1 1887.37 232.379C1896.52 251.229 1905.42 269.932 1910.92 290.464C1911.51 292.625 1911.51 292.625 1912.1 294.828C1915.9 309.596 1918.2 324.599 1920.46 339.724C1921.98 349.931 1923.68 359.885 1926.18 369.872C1935.43 408.382 1932.12 453.719 1926.76 492.8C1926.57 494.244 1926.38 495.687 1926.19 497.174C1915.38 574.138 1880.55 652.488 1849.03 721.633C1845.53 729.397 1842.16 737.229 1838.78 745.055C1830.69 763.745 1822.23 782.138 1813.29 800.353C1804.94 817.364 1797.15 834.682 1789.62 852.138C1780.97 872.161 1772.12 891.832 1762.09 911.071C1754.9 924.982 1748.71 939.323 1742.55 953.807C1738.89 962.398 1735.03 970.855 1731.09 979.298C1725.61 991.1 1720.6 1003.07 1715.72 1015.18C1702.59 1047.54 1687.15 1078.55 1670.94 1109.17C1651.39 1146.24 1633.18 1184.22 1616.13 1222.73C1606.62 1244.02 1596.14 1264.72 1585.55 1285.39C1584.31 1287.82 1583.07 1290.25 1581.83 1292.68C1581.22 1293.87 1580.61 1295.06 1579.98 1296.29C1576.85 1302.49 1573.85 1308.73 1571.01 1315.1C1570.44 1316.39 1569.86 1317.67 1569.27 1318.99C1567.71 1322.55 1566.17 1326.11 1564.63 1329.68C1559.51 1339.64 1552.22 1346.93 1542.87 1352.03C1534 1353.09 1526.5 1353.14 1518.3 1349.1C1505.91 1336.77 1496.97 1321.03 1487.57 1305.97C1484.76 1301.48 1481.9 1297.06 1478.97 1292.66C1470.01 1279.07 1462.74 1265.23 1456.08 1250.15C1450.19 1236.85 1443.93 1223.76 1437.7 1210.65C1436.47 1208.04 1435.23 1205.44 1434 1202.83C1427.53 1189.2 1421.02 1175.59 1414.41 1162.04C1407.32 1147.5 1400.55 1132.81 1393.86 1118.06C1383.78 1095.87 1373.57 1073.76 1363.18 1051.74C1361.18 1047.5 1359.18 1043.26 1357.18 1039.02C1351.3 1026.54 1345.39 1014.1 1339.29 1001.75C1333.44 989.877 1327.99 977.988 1323.21 965.554C1315.45 946.038 1306.33 927.402 1297.12 908.671C1284.38 882.741 1272.68 856.604 1261.7 829.718C1258.67 822.401 1255.46 815.192 1252.16 808.012C1251.57 806.726 1250.99 805.441 1250.38 804.116C1247.1 797.033 1243.68 790.053 1240.15 783.118C1227.44 757.891 1217.53 731.957 1207.96 705.182C1201.14 686.131 1193.91 667.426 1186.12 648.815C1177.51 628.071 1170.34 607.29 1164.22 585.525C1162.68 580.246 1161.01 575.042 1159.29 569.83C1143.46 520.684 1139.93 468.007 1140 416.193C1140 414.669 1140 413.146 1140 411.576C1140.05 388.22 1140.6 365.216 1144.08 342.13C1144.29 340.643 1144.5 339.157 1144.71 337.625C1147.8 316.693 1153.2 296.941 1159.68 276.975C1160.36 274.886 1161.04 272.796 1161.73 270.643C1168.58 250.356 1178.09 232.051 1188.69 213.857C1189.49 212.466 1190.3 211.075 1191.13 209.643C1192.73 206.877 1194.34 204.112 1195.94 201.349C1197.83 198.069 1199.67 194.755 1201.5 191.436C1215.68 165.913 1234.83 144.479 1254.07 123.466C1257.4 119.817 1260.7 116.137 1264 112.454C1283.64 90.7853 1304.89 73.6652 1329.27 58.7323C1330.95 57.6985 1332.63 56.6648 1334.36 55.5996C1348.85 46.8102 1363.45 39.2309 1378.88 32.645C1380.79 31.8198 1382.7 30.9947 1384.67 30.1446C1391.23 27.3313 1397.81 24.5715 1404.39 21.8283C1406.47 20.946 1408.55 20.0638 1410.7 19.1549C1424.87 13.3719 1438.43 10.2044 1453.42 8.21193C1456.92 7.66465 1460.41 7.11085 1463.91 6.54966C1509.04 -0.370248 1553.51 -2.77903 1598.78 4.13976ZM1473.92 266.795C1471.35 267.912 1468.78 269.028 1466.2 270.143C1458.7 273.484 1451.38 277.164 1444.11 281.047C1442.15 282.087 1440.2 283.126 1438.19 284.197C1405.44 303.343 1378.29 337.163 1366.67 375.68C1363.51 387.387 1363.13 398.411 1363.17 410.554C1363.16 412.757 1363.15 414.961 1363.14 417.231C1363.13 421.87 1363.13 426.509 1363.14 431.148C1363.16 438.154 1363.11 445.156 1363.05 452.162C1362.9 500.441 1372.33 529.02 1401.25 566.099C1402.85 568.269 1402.85 568.269 1404.49 570.482C1429.34 603.287 1467.33 624.28 1505.6 631.254C1548.4 633.971 1548.4 633.971 1589.46 623.11C1591.25 622.306 1591.25 622.306 1593.08 621.486C1612.64 612.468 1628.2 600.353 1643.51 584.424C1644.68 583.217 1645.85 582.01 1647.06 580.766C1678.03 548.608 1704.4 506.99 1707.2 458.578C1708.13 407.654 1701.83 373.069 1671.9 332.998C1669.84 330.234 1667.81 327.439 1665.78 324.64C1647.2 300.369 1621.06 280.409 1595.05 266.795C1593.02 265.724 1590.99 264.653 1588.9 263.55C1554.98 248.966 1507.26 251.429 1473.92 266.795Z" fill="#0C3344"/>
<path d="M2094.45 665.536C2096.62 665.53 2096.62 665.53 2098.84 665.523C2103.72 665.512 2108.6 665.515 2113.49 665.518C2117.01 665.512 2120.53 665.506 2124.06 665.499C2133.76 665.483 2143.47 665.479 2153.17 665.478C2163.63 665.474 2174.09 665.459 2184.55 665.445C2207.43 665.418 2230.31 665.405 2253.19 665.396C2267.47 665.391 2281.75 665.382 2296.04 665.373C2335.56 665.348 2375.08 665.327 2414.61 665.321C2417.16 665.32 2419.72 665.32 2422.28 665.319C2424.84 665.319 2427.4 665.318 2429.96 665.318C2435.1 665.317 2440.24 665.316 2445.38 665.315C2446.66 665.315 2447.93 665.315 2449.24 665.315C2490.57 665.307 2531.9 665.275 2573.23 665.228C2616.92 665.178 2660.62 665.15 2704.31 665.148C2728.13 665.146 2751.95 665.134 2775.77 665.097C2796.05 665.066 2816.33 665.056 2836.61 665.072C2846.96 665.08 2857.31 665.078 2867.66 665.05C2877.13 665.024 2886.6 665.026 2896.08 665.051C2899.5 665.055 2902.93 665.049 2906.36 665.031C2911.02 665.009 2915.68 665.024 2920.34 665.048C2921.67 665.033 2923 665.017 2924.37 665.001C2939.61 665.173 2950.6 670.586 2961.54 682.023C2964.96 686.133 2968.11 690.399 2971.18 694.821C2972.4 696.569 2972.4 696.569 2973.65 698.352C2979.54 707.01 2982.93 714.336 2985.71 724.601C2986.96 728.076 2988.24 731.539 2989.54 734.992C2996.06 752.408 2997.49 766.522 2997.45 785.3C2997.48 787.834 2997.51 790.368 2997.54 792.979C2997.55 819.883 2997.55 819.882 2988.56 831.537C2978.24 840.196 2970.56 840.47 2957.83 840.442C2955.56 840.45 2955.56 840.45 2953.24 840.457C2948.13 840.47 2943.01 840.47 2937.9 840.469C2934.21 840.475 2930.52 840.483 2926.83 840.491C2916.67 840.512 2906.5 840.519 2896.34 840.524C2885.38 840.532 2874.43 840.552 2863.48 840.57C2838.26 840.608 2813.05 840.628 2787.83 840.645C2775.37 840.654 2762.91 840.665 2750.45 840.675C2707.8 840.712 2665.15 840.742 2622.5 840.757C2619.82 840.758 2617.14 840.759 2614.47 840.76C2612.47 840.761 2612.47 840.761 2610.44 840.761C2603.71 840.764 2596.99 840.766 2590.26 840.769C2588.92 840.769 2587.59 840.77 2586.21 840.77C2542.93 840.786 2499.64 840.834 2456.35 840.9C2410.59 840.969 2364.82 841.009 2319.05 841.016C2314.03 841.017 2309 841.018 2303.98 841.019C2302.74 841.019 2301.51 841.019 2300.23 841.019C2281.56 841.024 2262.89 841.051 2244.21 841.09C2222.97 841.134 2201.72 841.15 2180.48 841.13C2169.64 841.121 2158.8 841.125 2147.96 841.164C2138.04 841.2 2128.11 841.198 2118.19 841.167C2114.6 841.162 2111.01 841.171 2107.42 841.195C2073.09 841.41 2073.09 841.41 2057.91 832.06C2055.83 830.84 2053.75 829.619 2051.61 828.361C2039.09 819.466 2028.15 810.201 2023.42 794.119C2021.62 784.177 2022.16 773.873 2022.14 763.773C2022.12 759.617 2022.06 755.463 2022 751.307C2021.93 731.393 2022.85 717.266 2035.95 702.298C2038.16 699.75 2038.16 699.75 2040.43 697.15C2041.9 695.503 2043.38 693.857 2044.89 692.16C2046.2 690.639 2047.5 689.118 2048.84 687.551C2062.66 671.744 2074.38 665.482 2094.45 665.536Z" fill="#EB8A1E"/>
<path d="M2166.37 977.024C2170.05 977.016 2173.72 977.005 2177.4 976.99C2187.49 976.96 2197.57 976.981 2207.65 977.01C2218.54 977.033 2229.42 977.008 2240.31 976.99C2261.62 976.962 2282.93 976.977 2304.24 977.008C2321.56 977.032 2338.88 977.039 2356.2 977.034C2357.43 977.034 2358.66 977.034 2359.93 977.033C2364.93 977.032 2369.93 977.03 2374.93 977.029C2421.79 977.015 2468.66 977.046 2515.53 977.099C2557.16 977.146 2598.79 977.157 2640.42 977.136C2651.08 977.131 2661.75 977.126 2672.41 977.121C2673.72 977.12 2675.03 977.12 2676.39 977.119C2711.19 977.103 2745.99 977.117 2780.78 977.138C2784.53 977.141 2788.27 977.143 2792.02 977.145C2795.74 977.148 2799.46 977.15 2803.19 977.152C2820.49 977.162 2837.79 977.158 2855.09 977.15C2876.17 977.14 2897.25 977.152 2918.33 977.192C2929.08 977.212 2939.84 977.222 2950.6 977.206C2960.44 977.192 2970.29 977.206 2980.13 977.242C2983.69 977.25 2987.26 977.248 2990.82 977.235C2995.66 977.218 3000.5 977.239 3005.34 977.269C3007.42 977.249 3007.42 977.249 3009.54 977.228C3031.05 977.488 3043.39 990.259 3057.96 1006.15C3071.4 1021.96 3072.12 1038.41 3071.93 1059.14C3071.95 1061.45 3071.97 1063.75 3072 1066.13C3071.91 1093.61 3062.94 1106.71 3045.46 1125.77C3030.48 1140.9 3014.71 1141.13 2995.13 1141.04C2992.5 1141.05 2989.87 1141.06 2987.23 1141.07C2980.02 1141.11 2972.82 1141.1 2965.61 1141.09C2957.82 1141.09 2950.04 1141.12 2942.25 1141.14C2928.77 1141.18 2915.29 1141.2 2901.81 1141.2C2882.3 1141.2 2862.79 1141.24 2843.28 1141.29C2811.6 1141.37 2779.93 1141.42 2748.25 1141.46C2717.52 1141.49 2686.79 1141.53 2656.07 1141.59C2653.23 1141.59 2653.23 1141.59 2650.33 1141.6C2629.66 1141.63 2609 1141.67 2588.33 1141.71C2586.52 1141.72 2584.7 1141.72 2582.83 1141.73C2575.57 1141.74 2568.3 1141.76 2561.04 1141.77C2539.78 1141.82 2518.53 1141.85 2497.28 1141.87C2483.94 1141.88 2470.61 1141.9 2457.28 1141.93C2449.59 1141.94 2441.9 1141.95 2434.21 1141.95C2427.16 1141.96 2420.12 1141.97 2413.07 1141.98C2409.32 1141.99 2405.58 1141.99 2401.83 1141.98C2390.5 1142.02 2379.62 1142.46 2368.41 1144.3C2364.7 1144.47 2360.98 1144.56 2357.26 1144.55C2355.49 1144.56 2353.73 1144.56 2351.91 1144.57C2346.1 1144.3 2346.1 1144.3 2339.64 1143.29C2329.7 1141.91 2319.81 1141.96 2309.8 1141.95C2306.65 1141.94 2306.65 1141.94 2303.44 1141.92C2298.9 1141.9 2294.36 1141.88 2289.82 1141.87C2282.63 1141.84 2275.44 1141.8 2268.25 1141.76C2247.81 1141.63 2227.37 1141.52 2206.93 1141.46C2194.41 1141.42 2181.9 1141.34 2169.38 1141.25C2164.62 1141.22 2159.85 1141.21 2155.09 1141.2C2148.43 1141.19 2141.77 1141.14 2135.11 1141.09C2133.15 1141.09 2131.19 1141.1 2129.18 1141.11C2112.03 1140.9 2099.95 1136.73 2087.21 1123.83C2073.65 1107.86 2074.24 1090.81 2074.19 1070.22C2074.18 1065.77 2074.12 1061.33 2074.06 1056.88C2073.91 1035.7 2075.6 1020.36 2089.37 1004.3C2096.26 997.243 2103.59 991.203 2111.83 986.151C2112.93 985.47 2114.03 984.789 2115.16 984.087C2131.51 975.477 2148.65 976.919 2166.37 977.024Z" fill="#EB8A1E"/>
<path d="M2375.02 328.945C2376.64 328.939 2378.26 328.933 2379.93 328.927C2385.37 328.909 2390.81 328.906 2396.25 328.903C2400.15 328.894 2404.04 328.884 2407.94 328.873C2418.54 328.846 2429.13 328.833 2439.73 328.824C2446.35 328.818 2452.96 328.81 2459.58 328.801C2480.29 328.773 2501 328.753 2521.71 328.746C2545.62 328.736 2569.52 328.701 2593.43 328.642C2611.91 328.598 2630.39 328.578 2648.87 328.575C2659.9 328.573 2670.94 328.561 2681.98 328.525C2692.36 328.491 2702.74 328.487 2713.13 328.505C2716.93 328.506 2720.74 328.498 2724.55 328.478C2729.75 328.452 2734.96 328.464 2740.16 328.485C2741.66 328.468 2743.16 328.452 2744.71 328.435C2758.43 328.565 2770.06 332.235 2780.25 342.789C2781.8 344.389 2783.35 345.988 2784.94 347.636C2786.79 349.609 2788.63 351.584 2790.48 353.56C2791.63 354.78 2792.78 355.999 2793.97 357.255C2807.41 371.482 2820.58 385.592 2831.9 401.92C2835.21 406.426 2838.78 410.204 2842.65 414.133C2857.77 430.157 2866.62 450.316 2867.29 473.185C2867.06 484.879 2866.14 493.683 2858.54 502.576C2850.58 510.334 2844.3 511.955 2833.96 511.98C2832.23 511.989 2830.51 511.998 2828.73 512.008C2825.9 512.007 2825.9 512.007 2823 512.006C2820.99 512.014 2818.98 512.021 2816.91 512.029C2810.15 512.051 2803.38 512.059 2796.62 512.067C2791.78 512.08 2786.94 512.093 2782.1 512.107C2767.55 512.147 2753.01 512.168 2738.47 512.186C2731.61 512.195 2724.76 512.206 2717.9 512.216C2695.11 512.251 2672.32 512.28 2649.53 512.295C2643.62 512.299 2637.71 512.302 2631.79 512.306C2629.59 512.308 2629.59 512.308 2627.34 512.309C2603.55 512.326 2579.76 512.378 2555.96 512.444C2531.52 512.511 2507.08 512.547 2482.64 512.554C2468.92 512.558 2455.21 512.576 2441.49 512.627C2428.58 512.676 2415.67 512.683 2402.76 512.662C2398.03 512.661 2393.3 512.674 2388.57 512.702C2382.09 512.738 2375.62 512.724 2369.14 512.697C2366.36 512.73 2366.36 512.73 2363.51 512.764C2342.56 512.557 2324.72 504.287 2308.91 489.405C2294.39 472.453 2293.39 455.651 2293.45 433.273C2293.46 428.859 2293.41 424.447 2293.37 420.033C2293.26 396.533 2296.28 382.418 2311.52 364.902C2331.43 343.224 2346.11 328.912 2375.02 328.945Z" fill="#EB8A1E"/>
<path d="M2181.55 0.487775C2182.76 0.481751 2183.97 0.475727 2185.22 0.46952C2189.27 0.45195 2193.33 0.448853 2197.38 0.445823C2200.29 0.436437 2203.2 0.426248 2206.1 0.415319C2214 0.388734 2221.9 0.375647 2229.8 0.366636C2234.74 0.36069 2239.67 0.352366 2244.61 0.343311C2260.07 0.31559 2275.52 0.295989 2290.98 0.288158C2308.8 0.279077 2326.63 0.243509 2344.46 0.184753C2358.25 0.140888 2372.03 0.120471 2385.82 0.117762C2394.05 0.11564 2402.28 0.103715 2410.52 0.0674395C2418.26 0.0339622 2426.01 0.029684 2433.75 0.047446C2436.59 0.0490047 2439.43 0.0402461 2442.26 0.0201589C2459.76 -0.0964783 2475.25 -0.118426 2489.33 12.7873C2490.57 13.902 2491.8 15.0167 2493.08 16.1652C2494.31 17.3165 2495.55 18.4678 2496.82 19.6539C2498.06 20.7817 2499.31 21.9095 2500.59 23.0715C2505.46 27.507 2510.29 31.9826 2515.06 36.5494C2521.15 42.3627 2527.07 47.3043 2534.12 51.7143C2546.25 59.9253 2556.22 70.1474 2566.41 80.9403C2568.99 83.661 2571.6 86.3452 2574.21 89.0257C2585.64 101 2594.43 112.226 2595.63 130.067C2595.99 155.586 2595.99 155.586 2587.08 166.009C2577.06 175.766 2568.14 175.442 2555.27 175.439C2553.66 175.446 2552.05 175.454 2550.39 175.462C2544.99 175.484 2539.58 175.492 2534.17 175.499C2530.3 175.512 2526.43 175.526 2522.55 175.54C2509.83 175.582 2497.1 175.603 2484.37 175.624C2479.99 175.632 2475.61 175.64 2471.22 175.649C2450.63 175.687 2430.03 175.716 2409.44 175.733C2385.68 175.753 2361.92 175.806 2338.15 175.888C2319.78 175.949 2301.41 175.979 2283.04 175.986C2272.06 175.991 2261.09 176.009 2250.12 176.06C2239.8 176.107 2229.47 176.116 2219.15 176.095C2215.37 176.094 2211.58 176.107 2207.8 176.135C2183.16 176.306 2163.54 175.97 2144.94 156.386C2144.01 155.405 2143.08 154.424 2142.11 153.413C2139.42 150.556 2136.78 147.643 2134.14 144.728C2132.1 142.505 2132.1 142.505 2130.03 140.237C2116.71 124.767 2114.62 109.819 2114.85 89.2237C2114.83 87.2426 2114.8 85.2615 2114.78 83.2203C2114.89 54.8469 2124.05 38.4643 2141.57 18.3867C2153.69 5.53072 2164.71 0.534647 2181.55 0.487775Z" fill="#EB8A1E"/>
<path d="M2617.15 1431.93C2619.65 1431.92 2619.65 1431.92 2622.2 1431.91C2627.79 1431.89 2633.39 1431.89 2638.98 1431.88C2642.99 1431.87 2647 1431.86 2651 1431.85C2661.9 1431.83 2672.79 1431.81 2683.69 1431.8C2690.5 1431.8 2697.3 1431.79 2704.11 1431.78C2725.4 1431.75 2746.69 1431.73 2767.99 1431.73C2792.57 1431.72 2817.15 1431.68 2841.73 1431.62C2860.73 1431.58 2879.73 1431.56 2898.73 1431.56C2910.08 1431.55 2921.43 1431.54 2932.78 1431.51C2943.45 1431.47 2954.13 1431.47 2964.81 1431.49C2968.72 1431.49 2972.64 1431.48 2976.55 1431.46C2981.9 1431.43 2987.26 1431.44 2992.61 1431.47C2994.15 1431.45 2995.69 1431.43 2997.28 1431.42C3009.53 1431.53 3019.77 1434.02 3029.63 1442.48C3045.61 1464.03 3049.57 1481.92 3049.5 1509.13C3049.53 1511.44 3049.56 1513.76 3049.59 1516.14C3049.6 1538.32 3045.33 1551.08 3031.22 1567.37C3016.85 1582.15 3005.91 1586.61 2986.4 1586.59C2983.94 1586.6 2983.94 1586.6 2981.44 1586.61C2975.95 1586.62 2970.46 1586.63 2964.96 1586.63C2961.03 1586.64 2957.1 1586.65 2953.16 1586.66C2942.47 1586.69 2931.77 1586.7 2921.08 1586.71C2914.4 1586.72 2907.71 1586.72 2901.03 1586.73C2880.13 1586.76 2859.23 1586.78 2838.32 1586.79C2814.19 1586.8 2790.06 1586.83 2765.93 1586.89C2747.27 1586.93 2728.62 1586.96 2709.97 1586.96C2698.83 1586.96 2687.69 1586.97 2676.55 1587.01C2666.07 1587.04 2655.59 1587.05 2645.1 1587.03C2641.26 1587.03 2637.42 1587.04 2633.57 1587.06C2628.32 1587.08 2623.07 1587.07 2617.81 1587.05C2616.3 1587.06 2614.78 1587.08 2613.22 1587.1C2595.78 1586.93 2584.32 1579.99 2571.71 1567C2555.69 1548.48 2553.98 1534.49 2553.88 1509.76C2553.84 1507.42 2553.8 1505.08 2553.76 1502.67C2553.67 1480.3 2557.8 1467.59 2572.04 1451.15C2586.53 1436.25 2597.5 1431.9 2617.15 1431.93Z" fill="#EB8A1E"/>
<path d="M151.053 664.934C152.489 664.926 153.925 664.917 155.404 664.908C160.199 664.886 164.993 664.907 169.787 664.927C173.266 664.92 176.745 664.911 180.223 664.899C189.77 664.873 199.317 664.886 208.864 664.905C219.165 664.918 229.466 664.897 239.767 664.88C259.941 664.853 280.116 664.859 300.29 664.877C316.686 664.891 333.081 664.893 349.476 664.886C351.809 664.885 354.142 664.884 356.545 664.883C361.284 664.881 366.023 664.879 370.762 664.877C413.939 664.86 457.117 664.878 500.294 664.91C539.703 664.939 579.112 664.936 618.52 664.907C662.805 664.874 707.09 664.861 751.374 664.88C756.096 664.882 760.818 664.884 765.539 664.886C769.024 664.887 769.024 664.887 772.579 664.889C788.956 664.894 805.333 664.885 821.71 664.871C841.666 664.854 861.622 664.858 881.578 664.891C891.761 664.907 901.944 664.913 912.127 664.893C921.448 664.875 930.769 664.885 940.09 664.917C943.462 664.924 946.835 664.92 950.208 664.906C954.793 664.887 959.377 664.906 963.962 664.934C965.271 664.92 966.58 664.906 967.928 664.891C985.067 665.102 995.824 672.458 1007.98 684.998C1021.36 700.481 1025.59 712.42 1025.7 733.452C1025.71 735.112 1025.72 736.772 1025.73 738.482C1025.75 741.992 1025.76 745.502 1025.77 749.012C1025.78 754.342 1025.84 759.671 1025.9 765C1025.91 768.421 1025.92 771.842 1025.93 775.263C1025.95 776.839 1025.97 778.414 1026 780.038C1025.93 799.169 1019.34 811.631 1007.4 825.428C995.307 837.844 984.078 840.345 967.892 840.304C966.39 840.308 964.888 840.312 963.34 840.317C958.274 840.328 953.208 840.325 948.142 840.322C944.486 840.327 940.83 840.334 937.174 840.341C927.102 840.357 917.031 840.361 906.959 840.362C896.106 840.366 885.253 840.381 874.401 840.395C849.421 840.424 824.441 840.436 799.461 840.445C785.881 840.45 772.301 840.458 758.721 840.467C717.711 840.492 676.701 840.512 635.691 840.519C633.039 840.52 630.387 840.52 627.735 840.52C625.076 840.521 622.417 840.521 619.759 840.522C614.425 840.523 609.092 840.524 603.758 840.525C601.774 840.525 601.774 840.525 599.751 840.525C556.866 840.533 513.981 840.565 471.096 840.612C425.76 840.662 380.424 840.69 335.088 840.692C310.373 840.694 285.658 840.706 260.943 840.743C239.9 840.774 218.857 840.784 197.813 840.767C187.074 840.76 176.334 840.761 165.595 840.79C155.765 840.816 145.936 840.813 136.106 840.789C132.548 840.785 128.99 840.791 125.432 840.809C120.598 840.831 115.764 840.816 110.929 840.792C109.547 840.807 108.164 840.822 106.74 840.838C96.3586 840.725 85.6953 838.886 77.5674 831.3C63.8217 814.498 66.077 791.462 66.9924 770.415C69.7368 735.74 93.7094 698.37 116.54 675.353C127.355 667.159 138.107 664.794 151.053 664.934Z" fill="#EB8A1E"/>
<path d="M66.3542 977.123C67.8651 977.114 69.376 977.105 70.9326 977.096C75.9833 977.074 81.033 977.095 86.0836 977.116C89.7461 977.109 93.4085 977.099 97.0709 977.087C107.126 977.062 117.181 977.075 127.236 977.093C138.084 977.107 148.931 977.086 159.778 977.069C181.025 977.042 202.272 977.048 223.518 977.066C240.785 977.079 258.051 977.081 275.317 977.075C277.157 977.074 277.157 977.074 279.035 977.073C284.016 977.071 288.997 977.069 293.978 977.067C340.697 977.049 387.417 977.066 434.136 977.098C475.639 977.127 517.141 977.125 558.644 977.096C605.278 977.063 651.912 977.05 698.547 977.069C703.518 977.071 708.49 977.073 713.462 977.075C717.131 977.076 717.131 977.076 720.875 977.077C738.122 977.083 755.37 977.074 772.617 977.06C793.633 977.042 814.649 977.047 835.665 977.08C846.389 977.096 857.114 977.102 867.838 977.082C877.654 977.063 887.469 977.073 897.285 977.106C900.837 977.113 904.39 977.109 907.943 977.094C912.771 977.076 917.597 977.095 922.425 977.123C924.495 977.102 924.495 977.102 926.607 977.08C943.546 977.278 954.957 984.62 967.14 997.186C983.679 1016.33 984.847 1030.87 984.943 1056.44C985 1060.24 985 1060.24 985.059 1064.12C985.148 1087.21 981.503 1100.08 966.807 1117.08C952.812 1131.49 942.134 1136.32 923.106 1136.28C920.815 1136.28 920.815 1136.28 918.478 1136.29C913.327 1136.3 908.176 1136.3 903.024 1136.29C899.307 1136.3 895.59 1136.3 891.872 1136.31C881.631 1136.33 871.39 1136.33 861.149 1136.33C850.114 1136.34 839.079 1136.35 828.044 1136.37C802.645 1136.39 777.245 1136.41 751.845 1136.42C739.295 1136.42 726.745 1136.43 714.195 1136.44C671.239 1136.46 628.283 1136.48 585.328 1136.49C582.631 1136.49 579.934 1136.49 577.238 1136.49C574.534 1136.49 571.831 1136.49 569.128 1136.49C563.705 1136.49 558.282 1136.49 552.859 1136.5C551.514 1136.5 550.169 1136.5 548.784 1136.5C505.179 1136.5 461.573 1136.54 417.968 1136.58C371.871 1136.63 325.775 1136.66 279.678 1136.66C274.619 1136.66 269.559 1136.66 264.5 1136.66C263.254 1136.66 262.008 1136.66 260.725 1136.67C240.67 1136.67 220.616 1136.69 200.561 1136.72C180.407 1136.75 160.253 1136.75 140.098 1136.74C129.178 1136.73 118.258 1136.73 107.338 1136.76C97.3437 1136.79 87.3495 1136.78 77.355 1136.76C73.7371 1136.76 70.1192 1136.76 66.5014 1136.78C61.5857 1136.8 56.6713 1136.79 51.7557 1136.76C49.6462 1136.79 49.6462 1136.79 47.4941 1136.81C32.3918 1136.65 20.6554 1131.57 9.86932 1119.79C-0.385048 1103.87 0.187145 1088.81 0.14136 1070.06C0.123403 1065.61 0.0657964 1061.16 0.00720584 1056.71C-0.165424 1032.68 2.94427 1018.77 18.5349 1000.86C33.018 985.045 45.454 976.907 66.3542 977.123Z" fill="#EB8A1E"/>
<path d="M337.142 328.648C338.641 328.639 340.14 328.63 341.685 328.621C346.681 328.595 351.676 328.598 356.672 328.602C360.265 328.589 363.858 328.576 367.452 328.56C377.194 328.525 386.936 328.515 396.679 328.512C402.771 328.51 408.862 328.501 414.954 328.49C436.22 328.453 457.486 328.436 478.752 328.439C498.553 328.442 518.353 328.399 538.153 328.335C555.173 328.282 572.192 328.26 589.211 328.263C599.368 328.264 609.523 328.252 619.68 328.209C629.235 328.17 638.79 328.17 648.345 328.199C651.843 328.203 655.341 328.194 658.838 328.169C692.422 327.949 692.422 327.949 707.881 337.299C709.604 338.203 711.327 339.108 713.102 340.039C730.112 350.852 747.071 366.433 753.506 387.419C754.632 394.038 754.631 400.622 754.668 407.332C754.679 408.812 754.689 410.292 754.7 411.817C754.718 414.945 754.73 418.073 754.737 421.202C754.755 425.945 754.813 430.685 754.871 435.428C754.883 438.479 754.893 441.53 754.9 444.582C754.923 445.98 754.946 447.379 754.97 448.82C754.904 464.82 749.877 477.617 739.998 489.283C727.483 501.326 712.918 511.874 695.874 511.904C694.213 511.911 692.552 511.919 690.841 511.927C689.023 511.925 687.206 511.924 685.333 511.922C683.397 511.928 681.46 511.934 679.465 511.94C672.955 511.958 666.445 511.961 659.936 511.964C655.277 511.973 650.617 511.983 645.958 511.994C633.286 512.021 620.613 512.034 607.94 512.043C600.025 512.049 592.11 512.057 584.196 512.066C562.276 512.091 540.357 512.112 518.438 512.119C517.035 512.119 515.633 512.12 514.188 512.12C512.079 512.121 512.079 512.121 509.927 512.121C507.078 512.122 504.229 512.123 501.38 512.124C499.967 512.125 498.554 512.125 497.098 512.126C474.204 512.134 451.31 512.169 428.416 512.216C404.904 512.264 381.392 512.29 357.88 512.292C344.682 512.294 331.484 512.305 318.286 512.342C305.87 512.377 293.455 512.38 281.04 512.362C276.484 512.361 271.928 512.369 267.372 512.389C261.151 512.415 254.93 512.403 248.708 512.382C246.907 512.399 245.106 512.415 243.251 512.432C229.977 512.326 219.323 510.391 208.858 500.741C197.201 485.466 196.197 472.307 197.371 452.849C201.168 427.064 230.428 403.892 246.448 386.162C249.231 383.069 252 379.962 254.756 376.84C278.398 350.076 301.104 328.484 337.142 328.648Z" fill="#EB8A1E"/>
<path d="M67.0099 1431.69C69.5053 1431.68 69.5053 1431.68 72.0512 1431.67C77.6375 1431.66 83.2237 1431.65 88.81 1431.65C92.8107 1431.64 96.8113 1431.63 100.812 1431.62C111.69 1431.59 122.568 1431.58 133.445 1431.57C140.241 1431.57 147.036 1431.56 153.831 1431.55C175.091 1431.52 196.35 1431.5 217.609 1431.49C242.153 1431.48 266.697 1431.45 291.241 1431.39C310.211 1431.35 329.18 1431.33 348.149 1431.32C359.48 1431.32 370.811 1431.31 382.141 1431.27C392.801 1431.24 403.461 1431.23 414.121 1431.25C418.03 1431.25 421.939 1431.25 425.849 1431.22C431.193 1431.2 436.535 1431.21 441.879 1431.23C443.42 1431.22 444.961 1431.2 446.548 1431.18C464.069 1431.34 475.518 1438.2 488.191 1451.28C504.503 1470.16 505.915 1484.96 505.976 1510.09C505.994 1514.54 506.051 1518.99 506.11 1523.44C506.235 1541.42 505.464 1555.06 495.784 1570.33C484.717 1582.42 473.965 1586.25 458.503 1586.34C456.919 1586.34 455.335 1586.34 453.704 1586.34C452.012 1586.35 450.321 1586.36 448.578 1586.36C442.898 1586.39 437.218 1586.39 431.538 1586.4C427.47 1586.41 423.402 1586.43 419.334 1586.44C405.964 1586.49 392.593 1586.51 379.222 1586.53C374.618 1586.53 370.015 1586.54 365.411 1586.55C345.022 1586.59 324.632 1586.62 304.243 1586.63C300.514 1586.64 296.784 1586.64 293.055 1586.64C291.203 1586.64 291.203 1586.64 289.314 1586.64C269.327 1586.66 249.341 1586.71 229.354 1586.78C208.817 1586.85 188.28 1586.88 167.742 1586.89C156.219 1586.89 144.695 1586.91 133.171 1586.96C122.325 1587.01 111.48 1587.02 100.634 1587C96.6604 1587 92.6868 1587.01 88.7132 1587.04C83.2728 1587.07 77.8344 1587.06 72.394 1587.03C70.8352 1587.05 69.2763 1587.08 67.6702 1587.1C51.4849 1586.91 37.338 1580.94 25.4695 1568.84C15.5825 1557.2 15.1388 1545.66 15.0635 1530.45C15.0529 1528.79 15.0423 1527.13 15.0314 1525.42C15.0139 1521.91 15.0018 1518.4 14.9946 1514.89C14.9766 1509.56 14.919 1504.24 14.8604 1498.91C14.8483 1495.49 14.8386 1492.06 14.8314 1488.64C14.8085 1487.07 14.7856 1485.49 14.762 1483.87C14.8233 1467.2 19.2811 1454.14 30.2918 1442.11C42.3759 1432.83 52.5813 1431.68 67.0099 1431.69Z" fill="#EB8A1E"/>
<path d="M619.303 0.255627C622.762 0.234084 622.762 0.234084 626.29 0.212105C628.821 0.216754 631.352 0.221842 633.883 0.227324C636.568 0.218504 639.252 0.207995 641.936 0.195928C649.209 0.168835 656.481 0.167605 663.753 0.172743C669.833 0.174915 675.913 0.165003 681.993 0.155298C696.343 0.132824 710.693 0.13191 725.043 0.144178C739.825 0.156419 754.606 0.131468 769.388 0.088288C782.099 0.0525302 794.81 0.0404188 807.52 0.04701C815.103 0.0506781 822.686 0.0454091 830.269 0.0171809C837.403 -0.0083845 844.537 -0.0043139 851.671 0.0220682C854.281 0.0268488 856.891 0.0213751 859.501 0.00458754C882.091 -0.130164 894.832 3.11079 911.466 20.3829C927.654 38.0597 933.198 51.4258 933.355 76.851C933.342 79.4276 933.329 82.0042 933.315 84.6589C933.352 87.2198 933.39 89.7807 933.428 92.4192C933.417 114.824 929.612 130.941 915.332 147.248C914.436 148.271 913.541 149.294 912.618 150.347C900.345 164.098 889.445 174.367 871.303 175.638C868.454 175.663 865.605 175.665 862.757 175.65C860.391 175.662 860.391 175.662 857.977 175.674C852.706 175.695 847.435 175.687 842.164 175.679C838.379 175.688 834.594 175.698 830.81 175.71C820.538 175.737 810.267 175.738 799.995 175.733C791.419 175.731 782.843 175.741 774.266 175.751C754.034 175.773 733.801 175.774 713.568 175.762C692.697 175.75 671.827 175.775 650.956 175.818C633.034 175.853 615.111 175.866 597.188 175.859C586.486 175.855 575.783 175.861 565.08 175.889C555.016 175.914 544.952 175.91 534.888 175.884C531.196 175.879 527.505 175.885 523.813 175.901C518.769 175.923 513.727 175.906 508.683 175.881C507.227 175.896 505.77 175.91 504.268 175.926C493.668 175.812 484.676 173.754 476.308 166.071C467.048 152.926 467.428 140.613 468.404 124.442C470.704 108.818 480.981 98.9119 490.68 87.953C491.929 86.3224 493.179 84.6918 494.466 83.0118C506.099 68.5987 519.696 61.1412 535.17 52.4125C547.119 45.5359 555.205 38.9856 564.146 27.9373C569.888 21.748 576.125 17.4309 583.036 12.9472C584.2 12.1889 585.364 11.4306 586.564 10.6493C597.434 3.82824 606.748 0.281797 619.303 0.255627Z" fill="#EB8A1E"/>
<path d="M893.629 1567.55C902.619 1571.92 908.439 1578.27 912.461 1587.06C918.09 1605.26 917.281 1625.21 917.211 1644.02C917.211 1646.26 917.211 1648.49 917.212 1650.8C917.21 1658.1 917.194 1665.4 917.177 1672.71C917.173 1677.81 917.17 1682.91 917.168 1688C917.161 1700 917.144 1711.99 917.123 1723.98C917.097 1738.99 917.085 1754.01 917.074 1769.02C917.051 1795.76 917.015 1822.5 916.97 1849.23C921.023 1849.04 925.074 1848.81 929.124 1848.56C931.38 1848.43 933.636 1848.31 935.96 1848.18C947.247 1846.48 953.546 1840.45 961.529 1833.02C962.583 1832.05 963.636 1831.08 964.722 1830.08C972.505 1822.89 980.133 1815.56 987.721 1808.19C992.048 1803.98 996.39 1799.8 1000.74 1795.61C1013.08 1783.72 1025.4 1771.81 1037.7 1759.88C1045.26 1752.56 1052.84 1745.25 1060.43 1737.96C1063.3 1735.19 1066.16 1732.42 1069.01 1729.63C1101.38 1698.09 1101.38 1698.09 1121.01 1693.73C1141.89 1693.62 1157.67 1700.4 1175.84 1709.41C1177.93 1710.43 1177.93 1710.43 1180.07 1711.48C1202.02 1722.33 1222.04 1735.43 1242 1749.29C1263.2 1763.99 1285.11 1777.72 1306.98 1791.5C1331.28 1806.85 1355.07 1822.75 1378.04 1839.88C1385.5 1845.42 1393.13 1850.66 1400.89 1855.82C1411.71 1863.27 1417.7 1869.43 1421.97 1881.66C1423.11 1894.49 1421.75 1903.66 1413.49 1914.08C1406.27 1920.86 1398.26 1926.57 1390.14 1932.32C1388.66 1933.39 1387.17 1934.47 1385.63 1935.57C1365.2 1950.29 1344.46 1964.41 1323.05 1977.8C1271.57 2009.92 1271.57 2009.92 1222.12 2044.79C1208.11 2055.3 1193.77 2064.85 1178.72 2073.97C1169.16 2079.78 1159.9 2085.86 1150.77 2092.29C1139.16 2100.44 1127.03 2107.42 1114.57 2114.33C1095.84 2124.78 1079.41 2136.79 1062.9 2150.18C1035.78 2171.98 1006.23 2191.85 976.117 2209.7C966.945 2215.14 958.786 2221.32 950.464 2227.87C943.56 2232.98 936.362 2237.47 929.038 2242C906.827 2255.86 887.727 2272.05 869.259 2290.18C860.985 2298.17 852.149 2304.99 842.715 2311.69C833.721 2318.1 825.181 2324.89 816.712 2331.92C808.818 2338.47 800.929 2344.9 792.576 2350.92C765.1 2371.08 741.257 2395.69 716.837 2419.07C711.528 2424.15 706.209 2429.22 700.888 2434.29C696.732 2438.25 692.58 2442.22 688.431 2446.19C685.534 2448.96 682.634 2451.72 679.733 2454.48C669.263 2464.52 659.241 2474.78 649.616 2485.56C632.235 2504.34 632.235 2504.34 623.092 2512.79C615.374 2520.04 608.701 2527.99 601.915 2536.04C596.008 2542.96 589.944 2549.73 583.838 2556.48C560.946 2581.89 538.852 2607.78 519.121 2635.52C484.762 2683.61 484.762 2683.61 469.258 2688.21C453.03 2690.92 441.051 2688.58 427.467 2679.78C421.046 2674.88 415.325 2669.58 409.68 2663.89C404.513 2658.75 398.959 2654.17 393.315 2649.52C372.979 2632.72 353.922 2614.86 334.909 2596.71C331.798 2593.75 328.687 2590.78 325.575 2587.82C319.086 2581.63 312.6 2575.44 306.117 2569.25C297.863 2561.37 289.594 2553.5 281.321 2545.63C274.9 2539.52 268.489 2533.4 262.081 2527.28C259.038 2524.38 255.992 2521.48 252.943 2518.58C237.905 2504.29 223.243 2490.09 210.137 2474.12C205.787 2468.91 201.179 2464 196.466 2459.09C190.346 2452.68 184.549 2446.16 178.961 2439.33C173.389 2432.55 167.562 2426.19 161.324 2419.97C145.281 2403.92 131.855 2386.38 118.287 2368.41C108.14 2355.07 97.4117 2342.15 86.751 2329.18C69.4 2308.05 52.5722 2286.64 36.3983 2264.67C35.3907 2263.31 34.3831 2261.94 33.345 2260.54C15.3169 2236.03 -2.6576 2210.7 0.32667 2179.55C6.51519 2155.31 31.7211 2136.99 49.5936 2119.86C52.8251 2116.75 56.0331 2113.62 59.2414 2110.49C72.151 2098.04 85.6035 2087.06 100.302 2076.58C107.493 2071.37 114.11 2065.83 120.61 2059.86C122.902 2057.8 125.195 2055.75 127.489 2053.69C129.133 2052.21 129.133 2052.21 130.811 2050.69C142.884 2039.87 155.345 2029.45 167.838 2019.07C172.792 2014.91 177.663 2010.66 182.541 2006.41C189.391 2000.5 196.352 1994.87 203.627 1989.44C223.322 1974.58 241.195 1957.77 258.827 1940.74C265.718 1934.11 272.784 1927.82 280.224 1921.76C294.098 1910.41 307.335 1898.66 320.122 1886.2C321.368 1884.99 322.613 1883.78 323.896 1882.54C329.047 1877.52 334.193 1872.51 339.308 1867.47C359.952 1847.14 382.244 1825.2 413.294 1822.13C424.955 1823.37 432.131 1827.09 439.684 1835.56C456.417 1858.5 460.385 1890.41 466.137 1917.31C475.754 1964.36 475.754 1964.36 496.842 2007.3C505.003 2006.83 508.597 2006.23 514.397 2000.54C515.868 1998.51 517.34 1996.48 518.856 1994.38C519.667 1993.29 520.478 1992.2 521.314 1991.07C523.799 1987.72 526.237 1984.34 528.67 1980.96C537.214 1969.33 545.805 1958.28 555.989 1947.9C569.984 1933.51 581.378 1917.52 592.839 1901.27C601.825 1888.61 611.226 1876.75 621.695 1865.2C628.536 1857.64 634.972 1849.87 641.261 1841.89C647.898 1833.49 654.844 1825.54 662.347 1817.82C672.865 1806.99 682.22 1795.5 691.494 1783.71C694.195 1780.31 696.94 1776.94 699.703 1773.59C707.764 1763.78 715.584 1754 722.422 1743.35C728.967 1733.19 736.388 1723.88 744.038 1714.47C752.867 1703.61 761.078 1692.73 768.614 1681C777.384 1667.97 787.144 1655.57 796.743 1643.09C800.041 1638.77 803.285 1634.43 806.517 1630.06C817.788 1615.04 829.872 1601.34 843.501 1588.2C844.914 1586.82 846.328 1585.45 847.784 1584.04C861.357 1571.31 874.148 1563.99 893.629 1567.55Z" fill="#0C3344"/>
<path d="M2207.07 1527.02C2225.2 1535.33 2236.25 1553.31 2247.44 1568.59C2253.69 1577.03 2260.32 1584.95 2267.41 1592.75C2288.16 1615.74 2305.49 1640.49 2322.26 1666.23C2327.59 1674.38 2333.28 1682.23 2339.15 1690.04C2343.96 1696.73 2348.37 1703.63 2352.81 1710.54C2363.26 1726.7 2374.6 1742.15 2386.17 1757.58C2408.71 1787.69 2430.37 1818.33 2451.8 1849.17C2453.06 1850.98 2453.06 1850.98 2454.34 1852.84C2458.31 1858.54 2462.26 1864.24 2466.19 1869.96C2475.13 1882.9 2484.47 1895.42 2494.32 1907.75C2503.59 1919.44 2512.72 1931.18 2521.5 1943.21C2528.96 1953.33 2536.9 1962.99 2545.24 1972.47C2546.3 1973.7 2547.36 1974.92 2548.46 1976.19C2555.57 1984.2 2555.57 1984.2 2565.66 1987.04C2572.82 1984.73 2575.78 1981.55 2579.58 1975.45C2580.56 1973.91 2581.54 1972.37 2582.55 1970.79C2583.59 1969.13 2584.62 1967.47 2585.69 1965.76C2594.57 1951.87 2603.9 1938.54 2614.07 1925.48C2623.73 1913.04 2631.55 1900.73 2638.88 1886.91C2643.94 1878.53 2649.97 1873.82 2659.02 1869.5C2673.98 1867.57 2684.46 1868.92 2696.55 1877.66C2706.2 1885.51 2715.53 1893.67 2724.8 1901.92C2729.02 1905.49 2733.26 1909.01 2737.52 1912.53C2740.57 1915.09 2743.58 1917.69 2746.57 1920.32C2755.86 1928.48 2765.27 1936.03 2775.46 1943.15C2792.9 1955.69 2807.85 1970.51 2823.07 1985.39C2828.58 1990.74 2834.1 1996.09 2839.62 2001.43C2840.92 2002.69 2842.23 2003.95 2843.57 2005.25C2852.43 2013.79 2861.54 2021.89 2871.21 2029.59C2884.33 2040.71 2897.23 2052.05 2910.09 2063.43C2916.11 2068.75 2922.16 2074 2928.37 2079.11C2936.38 2085.72 2944.1 2092.61 2951.84 2099.51C2960.97 2107.64 2970.14 2115.68 2979.59 2123.48C2986.21 2128.97 2992.69 2134.61 2999.19 2140.23C3002.32 2142.91 3005.46 2145.57 3008.65 2148.2C3019.95 2157.52 3030.73 2167.25 3041.36 2177.27C3043.01 2178.8 3044.67 2180.32 3046.38 2181.89C3058.27 2193.13 3068.68 2204.42 3072 2220.46C3071.65 2234.45 3069.47 2244.45 3062.18 2256.56C3060.81 2258.86 3059.44 2261.15 3058.03 2263.52C3043.19 2287.95 3026.43 2310.75 3007.8 2332.66C3001.58 2339.98 2995.62 2347.4 2989.9 2355.1C2983.02 2364.3 2975.5 2372.84 2967.74 2381.37C2957.56 2392.76 2948.42 2404.84 2939.37 2417.06C2932.09 2426.74 2924.32 2435.16 2915.36 2443.45C2910.68 2447.85 2906.58 2452.53 2902.51 2457.44C2878.22 2486.25 2851.99 2512.66 2824.6 2538.79C2820.23 2542.96 2815.87 2547.13 2811.52 2551.3C2801.24 2561.14 2790.94 2570.97 2780.65 2580.8C2770.06 2590.89 2759.49 2601.01 2748.93 2611.14C2739.81 2619.89 2730.68 2628.62 2721.53 2637.35C2716.1 2642.54 2710.66 2647.73 2705.24 2652.94C2699.21 2658.73 2693.16 2664.49 2687.1 2670.25C2685.33 2671.96 2683.56 2673.66 2681.73 2675.42C2661.27 2694.79 2661.27 2694.79 2646.55 2697.39C2632.1 2697.23 2624.14 2695.38 2613.6 2685.36C2605.17 2676.58 2598.64 2666.61 2591.83 2656.67C2585.29 2647.3 2578.1 2638.41 2570.97 2629.45C2564.19 2620.89 2557.66 2612.22 2551.34 2603.35C2538.86 2585.96 2524.8 2569.97 2510.49 2553.95C2505 2547.78 2499.69 2541.54 2494.58 2535.08C2477.45 2513.76 2456.95 2494.9 2437.07 2475.95C2434.57 2473.57 2432.08 2471.18 2429.58 2468.8C2424.4 2463.85 2419.22 2458.9 2414.03 2453.96C2407.43 2447.66 2400.83 2441.35 2394.24 2435.05C2389.1 2430.14 2383.97 2425.23 2378.83 2420.33C2376.4 2418.01 2373.96 2415.68 2371.53 2413.36C2358.81 2401.19 2346 2389.28 2332.26 2378.15C2328.94 2375.29 2325.62 2372.42 2322.31 2369.54C2306.33 2355.77 2289.95 2342.41 2272.98 2329.77C2262.62 2321.95 2253.11 2313.38 2243.51 2304.75C2234.92 2297.08 2226.1 2289.93 2216.81 2283.04C2211.5 2278.99 2206.41 2274.79 2201.31 2270.51C2186.71 2258.3 2171.48 2247.21 2155.79 2236.31C2140.55 2225.71 2125.99 2214.6 2111.76 2202.79C2078.06 2174.91 2040.71 2151.69 2003.81 2127.92C1991.74 2120.14 1979.72 2112.29 1967.7 2104.45C1951.19 2093.69 1934.63 2083.03 1917.97 2072.48C1914.14 2070.05 1910.32 2067.61 1906.5 2065.17C1898.49 2060.04 1890.46 2054.94 1882.42 2049.86C1881.05 2048.99 1879.68 2048.12 1878.27 2047.22C1857.97 2034.39 1837.27 2022.36 1816.26 2010.61C1801.87 2002.53 1787.97 1994.04 1774.21 1985.01C1770.29 1982.5 1766.36 1980 1762.43 1977.5C1759.68 1975.76 1756.94 1974.01 1754.2 1972.26C1748.04 1968.32 1741.86 1964.43 1735.59 1960.64C1719.17 1950.61 1705.42 1939.11 1691.46 1926.24C1688.95 1924.03 1688.95 1924.03 1686.38 1921.78C1674.49 1911.08 1665.86 1900.76 1664.93 1884.7C1665.87 1867.87 1676.56 1854.14 1689.33 1843.15C1702.56 1834.04 1716.38 1826.14 1730.84 1818.96C1740.97 1813.84 1749.59 1807.59 1758.53 1800.78C1768.45 1793.34 1778.87 1786.92 1789.59 1780.59C1803.19 1772.54 1816.48 1764.24 1829.51 1755.38C1831.02 1754.36 1832.53 1753.33 1834.08 1752.28C1840.12 1748.15 1846.13 1744.01 1852.12 1739.82C1877.88 1722.03 1917.14 1695.66 1949.4 1694.33C1951.46 1694.21 1953.51 1694.09 1955.64 1693.96C1976.85 1697.56 1992.23 1713.85 2006.71 1727.94C2008.78 1729.93 2010.86 1731.92 2012.94 1733.91C2017.25 1738.05 2021.56 1742.2 2025.85 1746.37C2031.31 1751.66 2036.8 1756.93 2042.29 1762.2C2047.59 1767.28 2052.88 1772.37 2058.17 1777.47C2060.11 1779.34 2062.06 1781.21 2064.06 1783.14C2074.64 1793.39 2084.84 1803.83 2094.61 1814.78C2114.76 1839.44 2114.76 1839.44 2142.77 1851.9C2145.9 1852.08 2149.03 1852.24 2152.17 1852.4C2154.57 1852.53 2154.57 1852.53 2157.01 1852.66C2160.97 1852.88 2164.92 1853.08 2168.88 1853.29C2168.87 1851.86 2168.87 1850.43 2168.86 1848.97C2168.77 1814.17 2168.7 1779.37 2168.66 1744.57C2168.63 1727.75 2168.6 1710.92 2168.56 1694.09C2168.51 1679.41 2168.49 1664.73 2168.48 1650.05C2168.47 1642.29 2168.46 1634.53 2168.43 1626.77C2168.4 1619.44 2168.39 1612.11 2168.4 1604.78C2168.39 1600.86 2168.37 1596.93 2168.35 1593.01C2168.46 1544.76 2168.46 1544.76 2181.61 1531.07C2190.22 1525.59 2196.96 1525.72 2207.07 1527.02Z" fill="#0C3344"/>
<path d="M1375.43 1288.9C1392.32 1298.08 1400.91 1313.42 1410.24 1329.1C1418.55 1342.9 1427.72 1356.1 1436.96 1369.33C1456.64 1397.53 1474.02 1426.44 1490.21 1456.61C1497.91 1470.97 1505.97 1484.87 1515.6 1498.14C1516.44 1499.33 1517.28 1500.51 1518.15 1501.73C1523.96 1509.46 1529.41 1513.45 1538.68 1516.89C1546.15 1516.89 1548.63 1515.44 1554.13 1510.57C1580.2 1484.17 1597 1454.12 1613.88 1421.83C1623.56 1403.49 1633.53 1385.63 1647.29 1369.76C1652.31 1363.41 1656.47 1356.68 1660.68 1349.83C1668.25 1337.53 1676.27 1325.76 1685.09 1314.23C1686.17 1312.73 1687.26 1311.23 1688.38 1309.68C1694.74 1301.12 1700.37 1294.49 1710.55 1289.92C1723.08 1288.04 1731.32 1289.99 1742.38 1296C1758.6 1307.54 1770.35 1321.98 1782.25 1337.33C1786.19 1342.33 1790.33 1347.15 1794.49 1351.98C1796.82 1354.69 1796.82 1354.69 1799.2 1357.45C1802.37 1361.1 1805.55 1364.73 1808.75 1368.36C1818.36 1379.34 1826.95 1390.55 1835.12 1402.53C1848.64 1422.1 1863.4 1440.99 1878.44 1459.51C1949.12 1546.57 1949.12 1546.57 1947.02 1576.68C1943.67 1594.61 1932.24 1604.35 1917.13 1614.46C1898.31 1626.75 1878.72 1637.67 1858.95 1648.48C1842.35 1657.57 1826.76 1667.12 1811.66 1678.34C1787.62 1696.19 1761.19 1710.86 1735.3 1726.09C1720.4 1734.88 1705.78 1744.01 1691.28 1753.39C1681.97 1759.39 1672.6 1765.32 1663.24 1771.27C1655.61 1776.12 1648 1780.98 1640.41 1785.88C1626.59 1794.78 1612.7 1803.16 1598.19 1811.01C1589.26 1816.22 1580.88 1822.11 1572.59 1828.21C1560.2 1837.05 1547.69 1840.57 1532.31 1839.1C1512.55 1835.11 1496.91 1823.8 1480.6 1813.07C1471.66 1807.19 1462.53 1801.7 1453.27 1796.29C1438.85 1787.79 1425.11 1778.59 1411.4 1769.09C1390.28 1754.55 1369.03 1740.18 1346.94 1727.03C1331.32 1717.42 1316.14 1707.06 1301.96 1695.6C1289.72 1686.02 1276.1 1678.57 1262.59 1670.75C1251.66 1664.37 1241.25 1657.8 1231.27 1650.13C1214.08 1637.05 1195.29 1626.89 1176.06 1616.81C1133.55 1594.32 1133.55 1594.32 1127.04 1575.65C1124.29 1549.4 1135.57 1532.7 1152.5 1512.83C1156.01 1509.31 1159.55 1505.8 1163.11 1502.32C1176.63 1488.94 1186.66 1473.35 1197.25 1457.82C1206.53 1444.3 1216.19 1431.94 1227.39 1419.85C1245.14 1400.64 1260.62 1379.49 1275.66 1358.32C1336.76 1272.59 1336.76 1272.59 1375.43 1288.9Z" fill="#0C3344"/>
<path d="M2221.54 2392.68C2255.12 2414.17 2285.49 2439.24 2314.92 2465.64C2320.49 2470.52 2326.36 2474.97 2332.27 2479.46C2345.73 2489.92 2357.96 2501.39 2370.18 2513.14C2373.89 2516.71 2377.63 2520.26 2381.37 2523.81C2394.18 2536.02 2406.25 2548.38 2417.44 2561.98C2422.16 2567.54 2427.31 2572.46 2432.68 2577.43C2437.77 2582.27 2442.41 2587.45 2447.1 2592.64C2451.45 2597.42 2455.9 2602.09 2460.36 2606.77C2478.45 2626 2494.4 2646.07 2509.46 2667.51C2512.78 2672.23 2516.12 2676.92 2519.46 2681.61C2521.73 2684.82 2524 2688.03 2526.27 2691.25C2527.85 2693.46 2527.85 2693.46 2529.46 2695.72C2541.25 2712.51 2551.17 2728.18 2548.69 2749C2538.8 2779.89 2498.03 2799.87 2470.52 2814.63C2462.39 2819.02 2454.73 2823.72 2447.13 2828.91C2436.54 2836.1 2425.54 2842.09 2414.08 2847.92C2412.05 2848.96 2410.02 2850.01 2407.93 2851.09C2393.6 2858.45 2379.21 2865.69 2364.79 2872.89C2350.9 2879.84 2337.14 2886.99 2323.37 2894.15C2306.46 2902.93 2289.5 2911.51 2272.21 2919.58C2266.85 2922.08 2261.57 2924.68 2256.31 2927.36C2225.56 2942.93 2188.48 2960.39 2153.1 2952.53C2133.64 2945.86 2120.11 2928.04 2107.05 2913.48C2093.16 2898.08 2078.6 2883.43 2063.44 2869.17C2060.13 2866.05 2056.83 2862.93 2053.53 2859.8C2044.17 2850.93 2034.81 2842.07 2025.42 2833.23C2019.63 2827.78 2013.86 2822.31 2008.1 2816.84C2005.92 2814.77 2003.74 2812.72 2001.55 2810.67C1981.98 2792.33 1967.33 2776.62 1966.27 2749.31C1965.97 2715.52 1976.69 2682.57 1990.64 2651.73C1992.02 2648.64 1993.41 2645.55 1994.8 2642.47C1997.19 2637.14 1999.59 2631.82 2002 2626.5C2007.37 2614.65 2012.43 2602.71 2017.35 2590.68C2031.62 2555.84 2048.71 2522.49 2066.25 2489.06C2068.63 2484.52 2071 2479.97 2073.36 2475.41C2076.79 2468.8 2080.26 2462.2 2083.75 2455.6C2085.38 2452.51 2087 2449.42 2088.61 2446.32C2121.07 2384.08 2121.07 2384.08 2149.64 2371.31C2177.4 2365.9 2199.03 2378.62 2221.54 2392.68Z" fill="#0C3344"/>
<path d="M942.898 2369.64C971.993 2385.69 986.061 2417.94 999.439 2445.87C1004.55 2456.41 1010.25 2466.49 1016.3 2476.56C1038.48 2513.8 1055.49 2553.91 1072.17 2593.63C1073.74 2597.37 1075.32 2601.12 1076.91 2604.87C1077.69 2606.73 1078.48 2608.6 1079.29 2610.52C1084.89 2623.61 1091.16 2636.27 1097.73 2648.94C1107.96 2668.79 1115 2689.07 1120.67 2710.5C1121.12 2712.14 1121.56 2713.78 1122.02 2715.47C1123.26 2723.76 1123.27 2732.02 1123.32 2740.39C1123.37 2742.12 1123.41 2743.86 1123.45 2745.65C1123.63 2773.03 1110.72 2788.97 1091.16 2808.01C1087.22 2811.76 1083.26 2815.51 1079.29 2819.24C1077.16 2821.26 1075.03 2823.29 1072.9 2825.32C1067.33 2830.61 1061.75 2835.88 1056.17 2841.16C1047.24 2849.6 1038.32 2858.06 1029.41 2866.52C1026.33 2869.44 1023.24 2872.36 1020.15 2875.28C1009.34 2885.53 998.972 2895.97 989.114 2907.07C982.823 2913.89 976.461 2920.64 970.018 2927.33C968.412 2929 966.806 2930.67 965.152 2932.39C951.228 2946.33 938.058 2955.25 917.385 2955.89C878.69 2954.05 842.21 2932.2 809.209 2914.15C799.889 2909.07 790.453 2904.28 780.907 2899.6C763.664 2891.14 747.504 2881.95 731.532 2871.47C723.902 2866.48 716.055 2861.91 708.1 2857.42C695.95 2850.55 683.937 2843.5 671.997 2836.3C663.448 2831.17 654.835 2826.15 646.152 2821.23C564.991 2775.06 564.991 2775.06 557.001 2745.4C552.508 2718.27 574.556 2689.12 590.205 2667.94C594.463 2662.53 598.76 2657.16 603.137 2651.84C608.838 2644.9 614.243 2637.82 619.504 2630.57C627.915 2618.99 636.579 2608.8 647.321 2599.05C652.784 2594.03 657.682 2588.65 662.622 2583.17C680.086 2563.84 698.678 2545.73 717.576 2527.68C722.541 2522.93 727.489 2518.17 732.436 2513.41C747.29 2499.17 762.045 2485.3 778.607 2472.87C784.783 2468.22 790.438 2463.22 796.158 2458.07C803.66 2451.39 811.283 2444.99 819.365 2438.95C827.296 2433.01 834.797 2426.75 842.175 2420.2C911.582 2358.85 911.582 2358.85 942.898 2369.64Z" fill="#0C3344"/>
<path d="M1644.91 2269.35C1647.15 2269.46 1647.15 2269.46 1649.45 2269.57C1658.47 2270.1 1667.18 2271.25 1676.07 2272.79C1689.65 2275.04 1703.02 2275.61 1716.78 2275.94C1721.67 2276.1 1726.55 2276.26 1731.44 2276.43C1738.56 2276.66 1745.67 2276.85 1752.79 2276.97C1768.42 2277.55 1781.79 2281.59 1796.48 2286.35C1810.62 2290.81 1824.5 2293.13 1839.24 2294.98C1852.41 2296.65 1865.14 2299.14 1878.02 2302.22C1887.41 2304.45 1896.75 2306.19 1906.29 2307.73C1929.89 2312.09 1951.94 2321.55 1974.13 2330.13C1986.76 2334.83 1999.2 2337.41 2012.59 2339.21C2025.13 2341.1 2033.23 2345.98 2042.22 2354.34C2046.82 2361.5 2048.3 2367.84 2047.93 2376.12C2044.49 2388.65 2037.81 2398.11 2030.45 2408.88C2021.81 2422.15 2016.26 2436.44 2010.79 2451.11C2005 2466.52 1997.55 2481.02 1989.97 2495.69C1974.15 2526.55 1961.97 2558.12 1950.2 2590.55C1947.86 2597.01 1945.51 2603.47 1943.16 2609.93C1942.28 2612.34 1942.28 2612.34 1941.39 2614.8C1904.41 2716.26 1904.41 2716.26 1882.42 2728.74C1860.96 2734.54 1841.5 2724.56 1822.21 2716.11C1806.63 2709.49 1790.45 2705.32 1774.02 2701.09C1767.33 2699.37 1760.77 2697.48 1754.21 2695.34C1716.25 2683.06 1679 2678.5 1639.18 2677.58C1620.01 2677.05 1601.35 2676.43 1586.55 2663.38C1570.24 2635.96 1574.21 2601.98 1573.74 2571.35C1573.45 2553.27 1573.13 2535.69 1569.48 2517.88C1565.29 2494.99 1565.95 2471.53 1565.98 2448.37C1565.98 2444.84 1565.98 2441.3 1565.98 2437.76C1565.97 2430.38 1565.98 2423.01 1565.99 2415.64C1566 2406.25 1565.99 2396.87 1565.98 2387.48C1565.97 2380.19 1565.97 2372.89 1565.98 2365.6C1565.98 2362.14 1565.98 2358.68 1565.97 2355.23C1565.91 2297.4 1565.91 2297.4 1576.87 2282.91C1595.17 2265.88 1621.09 2268.19 1644.91 2269.35Z" fill="#0C3344"/>
<path d="M1455.39 2269.98C1457.89 2269.91 1457.89 2269.91 1460.44 2269.83C1472.65 2269.77 1481.78 2272.37 1492 2278.85C1511.64 2298.11 1507.16 2328.26 1507.12 2353.15C1507.13 2356.05 1507.13 2358.95 1507.13 2361.85C1507.14 2369.65 1507.14 2377.45 1507.13 2385.25C1507.13 2393.46 1507.13 2401.67 1507.14 2409.87C1507.14 2423.65 1507.13 2437.43 1507.12 2451.21C1507.11 2467.08 1507.12 2482.95 1507.13 2498.82C1507.14 2512.51 1507.14 2526.2 1507.13 2539.89C1507.13 2548.03 1507.13 2556.18 1507.14 2564.33C1507.14 2572 1507.14 2579.66 1507.13 2587.33C1507.12 2591.44 1507.13 2595.55 1507.14 2599.67C1507.01 2650.48 1507.01 2650.48 1494.12 2665.91C1479.38 2676.25 1464.24 2677.46 1446.51 2677.94C1427.43 2678.9 1410.82 2681.2 1392.83 2687.27C1378.65 2692.04 1364.35 2695.52 1349.7 2698.72C1347.32 2699.23 1344.95 2699.75 1342.5 2700.29C1329.38 2703.09 1316.32 2705.4 1303.02 2707.2C1284.54 2709.72 1267.2 2715.27 1249.6 2721.07C1219.62 2730.82 1219.62 2730.82 1203.95 2726.58C1191.97 2719.76 1187.01 2712.8 1182.54 2700.54C1179.44 2692.18 1176.28 2683.85 1173.01 2675.55C1164.68 2654.29 1156.46 2633.06 1149.18 2611.45C1143.64 2595.07 1136.98 2579.35 1129.71 2563.61C1125.54 2554.57 1121.63 2545.57 1118.22 2536.25C1112.03 2519.28 1103.67 2503.74 1094.84 2487.89C1086.44 2472.82 1078.43 2457.61 1070.67 2442.24C1069.61 2440.15 1068.55 2438.07 1067.46 2435.93C1055.3 2411.71 1045.81 2389.26 1054.59 2362.56C1060.92 2350.36 1069.55 2343.56 1082.21 2337.74C1083.65 2337.07 1085.09 2336.39 1086.58 2335.7C1105.29 2327.33 1125.17 2322.17 1144.99 2316.81C1151.67 2314.97 1158.24 2312.87 1164.83 2310.77C1177.12 2307.12 1189.51 2305.18 1202.2 2303.32C1211.13 2301.99 1219.76 2300.4 1228.49 2298.1C1240.06 2295.12 1251.63 2293.72 1263.5 2292.27C1279.95 2290.25 1294.54 2286.99 1309.91 2281.05C1333.95 2274.51 1360.91 2276.27 1385.72 2275.77C1400.43 2275.39 1414.39 2274.2 1428.85 2271.66C1437.72 2270.27 1446.43 2270 1455.39 2269.98Z" fill="#0C3344"/>
<path d="M1625.41 2735.57C1627.78 2735.6 1630.15 2735.63 1632.6 2735.66C1672.81 2736.73 1712.09 2744.87 1749.95 2757.53C1756.33 2759.51 1762.79 2761.15 1769.27 2762.83C1784.84 2767.03 1799.46 2772.68 1814.26 2778.89C1815.55 2779.43 1816.84 2779.97 1818.17 2780.52C1826.88 2784.16 1835.56 2787.85 1844.23 2791.56C1846 2792.3 1847.77 2793.04 1849.59 2793.81C1873.37 2803.85 1893.42 2817.72 1913.97 2832.83C1917.93 2835.73 1921.93 2838.57 1925.96 2841.38C1929.16 2843.61 1929.16 2843.61 1932.42 2845.89C1935.05 2847.73 1935.05 2847.73 1937.73 2849.6C1958.8 2865.76 1977.85 2884.16 1997.02 2902.32C2000.29 2905.41 2003.57 2908.49 2006.86 2911.55C2011.68 2916.05 2016.47 2920.57 2021.25 2925.11C2022.7 2926.45 2024.16 2927.8 2025.66 2929.18C2037.81 2940.84 2047.83 2954.34 2049.25 2971.16C2048.51 2981.47 2044.33 2988.53 2037.32 2996.23C2023.57 3007.23 2007.91 3012.6 1991.03 3017.76C1988.52 3018.55 1986 3019.34 1983.4 3020.15C1966.72 3025.24 1950.15 3029.18 1932.92 3032.06C1922.24 3033.88 1912.63 3036.47 1902.45 3040.06C1888.78 3044.73 1876.2 3046.11 1861.86 3047.14C1849.5 3048.19 1838.89 3050.97 1827.25 3055C1805.97 3062.25 1784.77 3063.23 1762.35 3064.28C1751.25 3064.83 1740.62 3066.34 1729.7 3068.2C1708.92 3071.39 1687.91 3071.54 1666.92 3071.47C1663.33 3071.48 1663.33 3071.48 1659.66 3071.49C1605.64 3071.43 1605.64 3071.43 1588.94 3056.77C1579.97 3042.18 1575.77 3027.27 1572.23 3010.8C1571.88 3009.17 1571.52 3007.54 1571.16 3005.85C1565.71 2978.93 1565.95 2951.72 1565.98 2924.41C1565.98 2920.65 1565.98 2916.88 1565.98 2913.11C1565.97 2905.26 1565.98 2897.41 1565.99 2889.56C1566 2879.56 1565.99 2869.56 1565.98 2859.57C1565.97 2851.8 1565.98 2844.04 1565.98 2836.28C1565.98 2832.59 1565.98 2828.91 1565.98 2825.22C1565.91 2762.62 1565.91 2762.62 1579 2746.97C1593.43 2736.87 1607.98 2735.21 1625.41 2735.57Z" fill="#0C3344"/>
<path d="M1488.79 2742.51C1498.58 2749.95 1503.74 2758.98 1505.6 2770.71C1506.65 2784.68 1507.15 2798.55 1507.12 2812.55C1507.13 2815.79 1507.13 2815.79 1507.13 2819.09C1507.14 2826.15 1507.14 2833.2 1507.13 2840.26C1507.13 2845.21 1507.13 2850.16 1507.14 2855.11C1507.14 2865.45 1507.14 2875.79 1507.13 2886.13C1507.11 2899.34 1507.12 2912.54 1507.13 2925.75C1507.14 2935.96 1507.14 2946.17 1507.13 2956.39C1507.13 2961.25 1507.13 2966.12 1507.14 2970.99C1507.14 2977.81 1507.14 2984.63 1507.12 2991.45C1507.13 2993.43 1507.13 2995.4 1507.14 2997.44C1506.99 3043.59 1506.99 3043.59 1494.12 3059.06C1472.44 3075.51 1440.27 3071.59 1414.07 3071.59C1409.03 3071.59 1403.99 3071.63 1398.95 3071.67C1368.42 3071.78 1339.12 3069.42 1309.44 3062.35C1301.32 3060.71 1293.48 3060.44 1285.2 3060.24C1244.41 3059.16 1205.64 3048.41 1166.38 3038.63C1155.5 3035.93 1144.64 3033.5 1133.63 3031.36C1123.45 3029.35 1114.52 3026.82 1105.02 3022.83C1092.34 3017.65 1079.58 3013.54 1066.28 3010.06C1055.11 3006.98 1047.7 3002.46 1040.57 2993.7C1035.61 2983.27 1034.61 2974.11 1037.79 2963.18C1048.43 2937.87 1071.15 2918.84 1090.96 2899.98C1095.95 2895.21 1100.9 2890.4 1105.84 2885.59C1133.9 2858.58 1164.03 2836.08 1199.18 2818.09C1203.99 2815.58 1208.73 2812.96 1213.48 2810.34C1259.04 2785.47 1306.83 2767.34 1357.48 2754.4C1363.82 2752.72 1370.01 2750.68 1376.22 2748.62C1406.03 2739.79 1460.23 2725.71 1488.79 2742.51Z" fill="#0C3344"/>
<path d="M1624.61 1986.91C1629.97 1989.57 1635.25 1992.33 1640.52 1995.14C1641.85 1995.84 1643.17 1996.55 1644.53 1997.27C1671.36 2011.67 1697.09 2027.8 1722.95 2043.72C1731.4 2048.91 1739.89 2054.05 1748.38 2059.18C1764.6 2069 1780.74 2078.92 1796.69 2089.14C1818.42 2103.07 1840.38 2116.61 1862.79 2129.52C1879.06 2138.91 1894.87 2148.87 1910.63 2159.01C1922.08 2166.36 1933.65 2173.44 1945.41 2180.31C1958.46 2187.98 1970.63 2196.2 1982.14 2205.9C1983.58 2207.1 1985.02 2208.31 1986.5 2209.55C1995 2217.13 2000.15 2223.52 2003.36 2234.27C2003.53 2243.51 2002.3 2247.2 1996.2 2254.41C1984.46 2262.4 1970.32 2259.32 1956.91 2257.41C1949.21 2256.17 1941.55 2254.79 1933.9 2253.37C1929.06 2252.5 1924.21 2251.68 1919.36 2250.89C1917.77 2250.63 1916.18 2250.37 1914.54 2250.1C1911.53 2249.61 1908.52 2249.12 1905.51 2248.64C1898.51 2247.47 1891.7 2246.1 1884.82 2244.38C1874.89 2241.94 1864.86 2240.9 1854.7 2239.71C1841.23 2238.05 1829.2 2235.92 1816.51 2231.1C1796.55 2224.04 1775.69 2224.05 1754.62 2223.03C1745.65 2222.57 1737.12 2221.68 1728.31 2220.04C1710 2216.89 1691.43 2217.26 1672.88 2217.04C1599.58 2216.19 1599.58 2216.19 1582.34 2205.3C1556.58 2178.69 1565.68 2128.93 1565.84 2095.24C1565.87 2089.43 1565.87 2083.63 1565.87 2077.82C1565.87 2072.15 1565.88 2066.48 1565.89 2060.8C1565.9 2056.85 1565.91 2052.9 1565.91 2048.95C1566.17 2001.35 1566.17 2001.35 1576.87 1987.03C1591.51 1973.9 1608.44 1979.36 1624.61 1986.91Z" fill="#0C3344"/>
<path d="M1496.25 1982.98C1511.07 1996.4 1510.73 2015.96 1511.31 2034.26C1511.41 2041.68 1511.45 2049.1 1511.46 2056.53C1511.46 2059.28 1511.47 2062.03 1511.48 2064.79C1511.49 2070.53 1511.49 2076.27 1511.49 2082.01C1511.49 2087.83 1511.51 2093.65 1511.54 2099.47C1511.97 2188.57 1511.97 2188.57 1496.25 2203.87C1477.59 2218.59 1447.44 2216.49 1424.21 2217.19C1415.08 2217.52 1406.4 2218.46 1397.41 2220.05C1383.11 2222.46 1368.84 2222.92 1354.37 2223.45C1330.97 2224.36 1309.69 2226.17 1287.52 2233.9C1266.1 2240.85 1243.34 2240.62 1220.93 2241.52C1208.9 2242.04 1197.35 2243.39 1185.52 2245.53C1170.61 2247.99 1157.52 2247.23 1144.02 2240.35C1136.14 2234.17 1133.92 2229.61 1132.48 2219.95C1134.91 2199.03 1152.61 2183.35 1168.9 2170.6C1184.88 2158.44 1201.34 2147.6 1219.04 2137.87C1229.21 2132.19 1238.52 2125.75 1247.86 2118.88C1263 2107.75 1278.77 2098.11 1295.07 2088.61C1300.69 2085.28 1306.17 2081.76 1311.64 2078.23C1322.7 2071.11 1333.97 2064.36 1345.32 2057.66C1353.75 2052.66 1362.02 2047.5 1370.21 2042.14C1382.51 2034.1 1394.86 2027.11 1408.19 2020.72C1421.09 2014.54 1432.02 2007.42 1443.07 1998.56C1459.54 1985.42 1474.55 1974.05 1496.25 1982.98Z" fill="#0C3344"/>
</svg>
